<svg width="472" height="175" viewBox="0 0 472 175" fill="none" xmlns="http://www.w3.org/2000/svg">
<path d="M126.259 110.517C131.618 130.652 119.639 151.319 99.5038 156.678C79.3685 162.037 58.7014 150.059 53.3425 129.923C47.9835 109.788 69.6653 125.579 89.8006 120.22C109.936 114.861 120.9 90.3816 126.259 110.517Z" fill="#048E7E"/>
<path d="M24.6715 94.6996C24.6715 84.2815 33.1171 75.8359 43.5352 75.8359C53.9533 75.8359 75.6013 97.4862 75.6013 107.904C75.6013 118.322 58.624 92.8132 43.5352 113.563C33.1171 113.563 24.6715 105.118 24.6715 94.6996Z" fill="#5EB1A8"/>
<path d="M52.0544 9.87081C58.9292 -4.16292 67.6437 59.5185 109.72 46.5217C123.753 53.3965 129.557 70.3461 122.682 84.3799C115.807 98.4136 98.8578 104.217 84.8241 97.3423C63.7179 87.003 45.1797 23.9045 52.0544 9.87081Z" fill="#31A093"/>
<path d="M174.438 91.3063C175.878 91.3063 176.91 90.6103 177.534 89.2183C178.158 87.8263 178.47 85.8823 178.47 83.3863C178.47 80.8423 178.134 78.8983 177.462 77.5543C176.79 76.2103 175.782 75.5383 174.438 75.5383C173.094 75.5383 172.11 76.2103 171.486 77.5543C170.862 78.8983 170.55 80.8423 170.55 83.3863C170.55 85.8823 170.838 87.8263 171.414 89.2183C171.99 90.6103 172.998 91.3063 174.438 91.3063ZM164.43 113.554C164.43 115.618 165.174 117.106 166.662 118.018C168.198 118.978 170.694 119.458 174.15 119.458C177.654 119.458 180.27 119.002 181.998 118.09C183.726 117.178 184.59 116.05 184.59 114.706C184.59 113.89 184.254 113.098 183.582 112.33C182.91 111.562 181.734 111.178 180.054 111.178H172.854C171.318 111.178 169.878 111.106 168.534 110.962C167.238 110.866 166.062 110.65 165.006 110.314C164.622 111.226 164.43 112.306 164.43 113.554ZM174.438 94.9063C171.702 94.9063 169.35 94.6183 167.382 94.0423C167.046 94.7623 166.878 95.6743 166.878 96.7783C166.878 97.5463 167.19 98.1703 167.814 98.6503C168.486 99.0823 169.566 99.2983 171.054 99.2983H179.046C183.126 99.2983 186.342 99.7783 188.694 100.738C191.046 101.65 192.702 102.946 193.662 104.626C194.67 106.258 195.174 108.154 195.174 110.314C195.174 112.906 194.31 115.234 192.582 117.298C190.902 119.41 188.382 121.066 185.022 122.266C181.662 123.514 177.534 124.138 172.638 124.138C168.462 124.138 165.246 123.73 162.99 122.914C160.734 122.098 159.174 121.042 158.31 119.746C157.446 118.498 157.014 117.202 157.014 115.858C157.014 114.322 157.494 112.93 158.454 111.682C159.414 110.482 160.782 109.498 162.558 108.73C161.07 108.058 160.014 107.194 159.39 106.138C158.814 105.082 158.526 103.978 158.526 102.826C158.526 100.954 159.054 99.2263 160.11 97.6423C161.214 96.0103 162.654 94.4503 164.43 92.9623C162.366 91.9063 160.854 90.5623 159.894 88.9303C158.982 87.2503 158.526 85.4503 158.526 83.5303C158.526 81.4183 159.054 79.4983 160.11 77.7703C161.214 75.9943 162.918 74.5783 165.222 73.5223C167.574 72.4663 170.646 71.9383 174.438 71.9383C177.318 71.9383 179.766 72.2503 181.782 72.8743C183.846 73.4983 185.502 74.3383 186.75 75.3943L194.814 71.7223L195.966 72.4423V78.4183H189.198C189.966 79.9063 190.35 81.6103 190.35 83.5303C190.35 85.5463 189.798 87.4183 188.694 89.1463C187.638 90.8743 185.934 92.2663 183.582 93.3223C181.278 94.3783 178.23 94.9063 174.438 94.9063ZM198.323 108.154V104.482L201.563 103.762C201.611 101.986 201.635 100.138 201.635 98.2183C201.635 96.2503 201.635 94.5223 201.635 93.0343V89.5783C201.635 87.6103 201.611 85.9783 201.563 84.6823C201.563 83.3383 201.515 81.9463 201.419 80.5063L197.531 79.8583V76.9063L214.235 71.9383L215.531 72.7303L215.315 83.4583V93.0343C215.315 94.5223 215.315 96.2743 215.315 98.2903C215.315 100.258 215.339 102.106 215.387 103.834L218.411 104.482V108.154H198.323ZM208.331 67.6903C206.507 67.6903 204.947 67.1143 203.651 65.9623C202.355 64.7623 201.707 63.2743 201.707 61.4983C201.707 59.6743 202.355 58.1863 203.651 57.0343C204.947 55.8823 206.507 55.3063 208.331 55.3063C210.155 55.3063 211.715 55.8823 213.011 57.0343C214.307 58.1863 214.955 59.6743 214.955 61.4983C214.955 63.2743 214.307 64.7623 213.011 65.9623C211.715 67.1143 210.155 67.6903 208.331 67.6903ZM221.667 108.226V104.554L224.907 103.834C224.955 102.106 224.979 100.258 224.979 98.2903C224.979 96.3223 224.979 94.5943 224.979 93.1063V63.2263L221.091 62.7223V59.4823L237.507 56.2423L238.731 57.0343L238.443 67.0423V76.1143C241.275 73.3303 244.683 71.9383 248.667 71.9383C251.307 71.9383 253.707 72.6343 255.867 74.0263C258.027 75.3703 259.731 77.4103 260.979 80.1463C262.275 82.8343 262.923 86.2423 262.923 90.3703C262.923 94.3063 262.179 97.6903 260.691 100.522C259.203 103.354 257.259 105.538 254.859 107.074C252.507 108.562 249.987 109.306 247.299 109.306C245.235 109.306 243.435 108.946 241.899 108.226C240.363 107.554 239.019 106.57 237.867 105.274L236.427 109.306L221.667 108.226ZM242.043 79.0663C241.419 79.0663 240.819 79.1623 240.243 79.3543C239.715 79.5463 239.187 79.8103 238.659 80.1463V101.386C239.619 102.058 240.747 102.394 242.043 102.394C243.963 102.394 245.499 101.41 246.651 99.4423C247.803 97.4743 248.379 94.4503 248.379 90.3703C248.379 86.2423 247.803 83.3383 246.651 81.6583C245.499 79.9303 243.963 79.0663 242.043 79.0663ZM266.526 108.226V104.554L269.766 103.834C269.814 102.106 269.838 100.258 269.838 98.2903C269.838 96.3223 269.838 94.5943 269.838 93.1063V63.2263L265.95 62.7223V59.4823L282.366 56.2423L283.59 57.0343L283.302 67.0423V76.1143C286.134 73.3303 289.542 71.9383 293.526 71.9383C296.166 71.9383 298.566 72.6343 300.726 74.0263C302.886 75.3703 304.59 77.4103 305.838 80.1463C307.134 82.8343 307.782 86.2423 307.782 90.3703C307.782 94.3063 307.038 97.6903 305.55 100.522C304.062 103.354 302.118 105.538 299.718 107.074C297.366 108.562 294.846 109.306 292.158 109.306C290.094 109.306 288.294 108.946 286.758 108.226C285.222 107.554 283.878 106.57 282.726 105.274L281.286 109.306L266.526 108.226ZM286.902 79.0663C286.278 79.0663 285.678 79.1623 285.102 79.3543C284.574 79.5463 284.046 79.8103 283.518 80.1463V101.386C284.478 102.058 285.606 102.394 286.902 102.394C288.822 102.394 290.358 101.41 291.51 99.4423C292.662 97.4743 293.238 94.4503 293.238 90.3703C293.238 86.2423 292.662 83.3383 291.51 81.6583C290.358 79.9303 288.822 79.0663 286.902 79.0663ZM324.201 109.306C319.209 109.306 314.793 108.13 310.953 105.778L311.313 96.5623H317.865L319.017 104.05C319.833 104.386 320.673 104.65 321.537 104.842C322.401 104.986 323.289 105.058 324.201 105.058C326.025 105.058 327.441 104.77 328.449 104.194C329.457 103.618 329.961 102.658 329.961 101.314C329.961 100.354 329.577 99.4903 328.809 98.7223C328.089 97.9543 326.529 97.2583 324.129 96.6343L320.025 95.5543C317.193 94.7863 315.033 93.4423 313.545 91.5223C312.057 89.5543 311.313 87.1783 311.313 84.3943C311.313 80.7943 312.681 77.8183 315.417 75.4663C318.201 73.1143 322.185 71.9383 327.369 71.9383C329.577 71.9383 331.617 72.1783 333.489 72.6583C335.409 73.1383 337.353 73.8583 339.321 74.8183L338.745 82.9543H332.121L330.537 76.5463C330.057 76.4503 329.529 76.3783 328.953 76.3303C328.425 76.2343 327.777 76.1863 327.009 76.1863C325.665 76.1863 324.513 76.4983 323.553 77.1223C322.641 77.6983 322.185 78.6103 322.185 79.8583C322.185 80.6263 322.521 81.3703 323.193 82.0903C323.865 82.8103 325.449 83.5063 327.945 84.1783L331.977 85.2583C335.337 86.1703 337.737 87.5863 339.177 89.5063C340.665 91.4263 341.409 93.8023 341.409 96.6343C341.409 100.858 339.849 104.026 336.729 106.138C333.657 108.25 329.481 109.306 324.201 109.306ZM352.794 109.306C350.826 109.306 349.146 108.634 347.754 107.29C346.41 105.946 345.738 104.314 345.738 102.394C345.738 100.426 346.41 98.7463 347.754 97.3543C349.146 95.9623 350.826 95.2663 352.794 95.2663C354.762 95.2663 356.418 95.9623 357.762 97.3543C359.154 98.7463 359.85 100.426 359.85 102.394C359.85 104.314 359.154 105.946 357.762 107.29C356.418 108.634 354.762 109.306 352.794 109.306ZM365.236 108.154V104.482L368.548 103.69C368.596 101.962 368.62 100.138 368.62 98.2183C368.62 96.2503 368.62 94.5223 368.62 93.0343V88.5703C368.62 87.2263 368.596 86.1463 368.548 85.3303C368.548 84.5143 368.524 83.7463 368.476 83.0263C368.476 82.3063 368.452 81.4663 368.404 80.5063L364.516 79.8583V76.9063L380.428 71.9383L381.724 72.7303L382.084 77.6983C384.052 75.3943 385.852 73.8583 387.484 73.0903C389.164 72.3223 391.012 71.9383 393.028 71.9383C396.148 71.9383 398.74 72.9703 400.804 75.0343C402.868 77.0503 403.9 80.0263 403.9 83.9623V93.0343C403.9 94.5703 403.9 96.3223 403.9 98.2903C403.9 100.258 403.924 102.106 403.972 103.834L406.996 104.482V108.154H387.052V104.482L390.148 103.762C390.196 102.034 390.22 100.186 390.22 98.2183C390.22 96.2503 390.22 94.5223 390.22 93.0343V84.8983C390.22 82.9783 389.956 81.6343 389.428 80.8663C388.948 80.0503 388.132 79.6423 386.98 79.6423C385.636 79.6423 384.076 80.2663 382.3 81.5143V93.0343C382.3 94.5223 382.3 96.2743 382.3 98.2903C382.3 100.258 382.324 102.13 382.372 103.906L385.108 104.482V108.154H365.236ZM428.821 109.306C424.693 109.306 421.213 108.49 418.381 106.858C415.549 105.178 413.413 102.898 411.973 100.018C410.533 97.1383 409.813 93.9223 409.813 90.3703C409.813 86.7703 410.629 83.6023 412.261 80.8663C413.893 78.0823 416.125 75.8983 418.957 74.3143C421.837 72.7303 425.125 71.9383 428.821 71.9383C432.517 71.9383 435.781 72.7303 438.613 74.3143C441.493 75.8503 443.749 78.0103 445.381 80.7943C447.013 83.5303 447.829 86.7223 447.829 90.3703C447.829 94.0183 447.085 97.2823 445.597 100.162C444.157 102.994 442.021 105.226 439.189 106.858C436.405 108.49 432.949 109.306 428.821 109.306ZM428.821 105.346C430.405 105.346 431.557 104.194 432.277 101.89C433.045 99.5863 433.429 95.8183 433.429 90.5863C433.429 85.3543 433.045 81.6103 432.277 79.3543C431.557 77.0503 430.405 75.8983 428.821 75.8983C427.237 75.8983 426.061 77.0503 425.293 79.3543C424.573 81.6103 424.213 85.3543 424.213 90.5863C424.213 95.8183 424.573 99.5863 425.293 101.89C426.061 104.194 427.237 105.346 428.821 105.346Z" fill="#31A093"/>
</svg>
