<svg width="712" height="705" viewBox="0 0 712 705" fill="none" xmlns="http://www.w3.org/2000/svg">
<rect width="712" height="705" fill="white"/>
<rect x="77.5" y="74" width="557" height="557" rx="80" fill="#008474" fill-opacity="0.1"/>
<path d="M502.184 434.272C519.801 499.052 480.423 565.542 414.233 582.783C348.042 600.024 280.103 561.486 262.487 496.707C244.87 431.928 316.145 482.73 382.335 465.489C448.526 448.249 484.568 369.493 502.184 434.272Z" fill="#008474"/>
<path d="M168.237 383.384C168.237 349.867 196 322.696 230.247 322.696C264.495 322.696 335.658 392.349 335.658 425.867C335.658 459.384 279.849 377.315 230.247 444.072C196 444.072 168.237 416.901 168.237 383.384Z" fill="#5EB1A8"/>
<path d="M258.251 110.475C280.85 65.3256 309.498 270.201 447.814 228.388C493.947 250.506 513.025 305.036 490.426 350.185C467.826 395.335 412.108 414.006 365.975 391.888C296.592 358.625 235.652 155.624 258.251 110.475Z" fill="#31A093"/>
</svg>
