<svg width="1em" height="1em" viewBox="0 0 43 43" fill="currentColor" xmlns="http://www.w3.org/2000/svg">
<path d="M40.3945 5.4021V16.6521C40.3945 18.0583 39.2227 19.1521 37.8945 19.1521H26.6445C25.2383 19.1521 24.1445 18.0583 24.1445 16.6521C24.1445 15.324 25.2383 14.1521 26.6445 14.1521H31.5664C29.2227 11.1052 25.5508 9.23022 21.5664 9.23022C14.6914 9.23022 9.14453 14.7771 9.14453 21.6521C9.14453 28.6052 14.6914 34.1521 21.5664 34.1521C24.3008 34.1521 26.8789 33.2927 29.0664 31.6521C30.1602 30.8708 31.7227 31.1052 32.582 32.199C33.4414 33.2927 33.207 34.8552 32.1133 35.7146C29.0664 37.9802 25.3945 39.1521 21.5664 39.1521C11.957 39.1521 4.14453 31.3396 4.14453 21.6521C4.14453 12.0427 11.957 4.23022 21.5664 4.23022C27.0352 4.23022 32.0352 6.73022 35.3945 10.949V5.4021C35.3945 4.07397 36.4883 2.9021 37.8945 2.9021C39.2227 2.9021 40.3945 4.07397 40.3945 5.4021Z" fill="currentColor"/>
<rect x="6.75098" y="3.16968" width="2.95873" height="46.1925" transform="rotate(-36.3892 6.75098 3.16968)" fill="currentColor"/>
</svg>
