<svg width="1em" height="1em" viewBox="0 0 55 43" fill="currentColor" xmlns="http://www.w3.org/2000/svg">
<path d="M15.1445 23.8044H13.8945C10.3789 23.8044 7.64453 21.0701 7.64453 17.5544C7.64453 14.1169 10.3789 11.3044 13.8945 11.3044H26.3945C29.832 11.3044 32.6445 14.1169 32.6445 17.5544C32.6445 21.0701 29.832 23.8044 26.3945 23.8044H25.3008C25.2227 24.1951 25.1445 24.6638 25.1445 25.0544C25.1445 26.8513 26.2383 28.2576 27.8789 28.7263C33.3477 27.9451 37.6445 23.2576 37.6445 17.5544C37.6445 11.3826 32.5664 6.30444 26.3945 6.30444H13.8945C7.64453 6.30444 2.64453 11.3826 2.64453 17.5544C2.64453 23.8044 7.64453 28.8044 13.8945 28.8044H15.6133C15.3008 27.6326 15.1445 26.3826 15.1445 25.0544C15.1445 24.6638 15.1445 24.2732 15.1445 23.8044ZM41.3945 13.8044H39.5977C39.9102 15.0544 40.1445 16.3044 40.1445 17.5544C40.1445 18.0232 40.0664 18.4138 40.0664 18.8044H41.3945C44.832 18.8044 47.6445 21.6169 47.6445 25.0544C47.6445 28.5701 44.832 31.3044 41.3945 31.3044H28.8945C25.3789 31.3044 22.6445 28.5701 22.6445 25.0544C22.6445 21.6169 25.3789 18.8044 28.8945 18.8044H29.9102C29.9883 18.4138 30.1445 18.0232 30.1445 17.5544C30.1445 15.8357 28.9727 14.4294 27.332 13.9607C21.8633 14.7419 17.6445 19.4294 17.6445 25.0544C17.6445 31.3044 22.6445 36.3044 28.8945 36.3044H41.3945C47.5664 36.3044 52.6445 31.3044 52.6445 25.0544C52.6445 18.8826 47.5664 13.8044 41.3945 13.8044Z" fill="currentColor"/>
</svg>
