<svg width="1em" height="1em" viewBox="0 0 43 43" fill="currentColor" xmlns="http://www.w3.org/2000/svg">
<path d="M37.6357 3.99194C38.7295 3.99194 39.8232 4.77319 39.8232 6.10132V17.5076C39.8232 18.2888 39.1201 18.9919 38.2607 18.9919H26.9326C25.6045 18.9919 24.8232 17.8982 24.8232 16.8826C24.8232 16.3357 24.9795 15.7888 25.4482 15.3982L28.9639 11.8044C26.7764 10.0076 23.9639 8.99194 20.9951 8.99194C14.1201 8.99194 8.57324 14.6169 8.57324 21.4919C8.57324 28.3669 14.1201 33.9138 20.9951 33.9138C26.7764 33.9138 28.0264 30.9451 30.0576 30.9451C31.4639 30.9451 32.4795 32.1169 32.4795 33.4451C32.4795 36.1794 26.1514 38.9138 20.9951 38.9138C11.3857 38.9138 3.57324 31.1013 3.57324 21.4919C3.57324 11.8044 11.3857 3.99194 21.0732 3.99194C25.292 3.99194 29.3545 5.55444 32.4795 8.28882L36.2295 4.61694C36.6201 4.14819 37.167 3.99194 37.6357 3.99194Z" fill="currentColor"/>
</svg>
